<svg  viewBox="0 0 950 400" fill="none" xmlns="http://www.w3.org/2000/svg">
<rect fill="white"/>
<path d="M624.265 167.986C623.602 169.476 619.462 180.24 615.074 191.832C610.686 203.424 606.794 213.443 606.38 214.105C605.8 215.264 604.641 212.532 597.355 192.412L593.794 182.724H584.355H574.916L575.661 184.546C593.794 231.99 604.972 261.053 605.304 261.384C606.214 262.378 608.533 256.996 620.87 224.538C628.074 205.577 634.284 190.424 634.615 190.756C634.946 191.087 641.239 207.067 648.525 226.194C655.977 245.9 662.187 260.97 662.767 260.97C663.595 260.97 691.333 191.004 692.989 184.546L693.486 182.641L684.212 182.89L674.856 183.138L669.06 199.036C665.83 207.812 662.932 214.685 662.601 214.354C662.27 214.022 657.882 202.927 652.914 189.762L643.806 165.75L634.615 165.502L625.341 165.253L624.265 167.986Z" fill="black"/>
<path d="M735.548 173.202V181.068L764.362 180.902L793.094 180.654V173.202V165.75L764.362 165.502L735.548 165.336V173.202Z" fill="black"/>
<path d="M849.978 212.78C839.876 238.862 831.596 260.473 831.596 260.804C831.596 261.136 835.819 261.384 841.035 261.384H850.392L859.748 234.474C864.964 219.653 869.436 207.812 869.684 208.144C870.015 208.558 873.741 218.659 877.964 230.748C882.187 242.837 886.41 254.677 887.238 256.996L888.811 261.384H897.919C905.122 261.384 906.944 261.136 906.944 260.225C906.944 257.658 870.595 165.75 869.518 165.502C868.69 165.336 862.977 179.164 849.978 212.78Z" fill="black"/>
<path d="M755.42 230.748V261.467L764.362 261.218L773.222 260.97L773.47 230.5L773.636 200.112H764.528H755.42V230.748Z" fill="black"/>
<path d="M111.75 86.2391V101.45H126.656H141.563V136.481V171.512L155.963 171.476L170.344 171.42L170.4 136.444L170.438 101.45L185.306 101.413L200.156 101.358L200.213 86.1837L200.25 71.0281H156H111.75V86.2391Z" fill="#004C6B"/>
<path d="M428.306 93.2084C427.838 93.78 425.812 97.025 425.812 97.2094C425.812 97.3016 426.131 97.3937 426.525 97.3937C427.163 97.3937 427.331 97.2647 428.588 95.8819C429.319 95.0706 429.938 94.3331 429.938 94.2409C429.938 94.1672 429.619 93.8537 429.206 93.5403C428.663 93.0978 428.438 93.0241 428.306 93.2084Z" fill="#004C6B"/>
<path d="M227.213 99.1269C224.906 99.9566 224.044 101.616 223.669 105.801C223.444 108.383 223.669 111.959 224.156 113.563C224.588 115.02 225.506 116.2 226.594 116.735C227.363 117.103 227.813 117.196 229.031 117.196C232.538 117.196 234 115.297 234.356 110.245C234.525 107.922 234.338 104.16 233.981 102.888C233.25 100.215 231.881 99.0531 229.313 98.9241C228.413 98.8872 227.644 98.9609 227.213 99.1269ZM230.438 101.247C231.881 102.003 232.425 104.455 232.256 109.286C232.144 112.457 231.863 113.637 231 114.448C230.494 114.909 230.25 115.002 229.144 115.057C227.925 115.131 227.831 115.112 227.194 114.541C226.144 113.637 225.9 112.66 225.806 108.641C225.675 103.736 226.163 101.819 227.7 101.155C228.525 100.805 229.688 100.842 230.438 101.247Z" fill="#004C6B"/>
<path d="M261.731 99.1084C259.931 99.7722 259.125 100.934 258.975 103.036C258.806 105.617 259.612 106.889 262.5 108.548C265.275 110.152 265.875 110.872 265.875 112.605C265.875 114.448 265.069 115.278 263.231 115.278C262.406 115.278 262.2 115.204 261.656 114.67C261.037 114.061 260.625 112.807 260.625 111.591C260.625 111.037 260.625 111.037 259.481 111.037H258.319L258.45 112.217C258.806 115.61 260.437 117.214 263.531 117.214C264.506 117.196 265.05 117.103 265.612 116.808C268.162 115.481 268.931 111.83 267.169 109.304C266.737 108.659 265.087 107.497 263.681 106.815C262.594 106.281 261.562 105.359 261.262 104.64C260.944 103.902 260.925 102.612 261.244 102.003C261.806 100.897 263.419 100.399 264.562 100.989C265.312 101.376 265.669 101.929 265.8 102.962L265.931 103.847H266.925H267.937V103.128C267.937 101.579 267.056 100.012 265.819 99.385C264.844 98.9056 262.706 98.7581 261.731 99.1084Z" fill="#004C6B"/>
<path d="M274.125 99.09C272.55 99.5325 271.519 100.805 270.938 103.017C270.45 104.898 270.375 110.3 270.825 112.549C271.463 115.776 272.925 117.177 275.644 117.196C278.756 117.196 280.331 115.536 280.781 111.72L280.894 110.669H279.788H278.681L278.55 111.941C278.288 114.448 277.275 115.481 275.306 115.186C274.256 115.038 273.413 114.283 273.019 113.139C272.663 112.125 272.513 105.728 272.813 104.087C273.206 101.837 274.088 100.86 275.813 100.842C277.425 100.823 278.231 101.671 278.4 103.57L278.494 104.769H279.619H280.744L280.613 103.589C280.369 101.247 279.656 99.9934 278.175 99.3113C277.144 98.8319 275.381 98.7397 274.125 99.09Z" fill="#004C6B"/>
<path d="M286.519 99.1269C284.962 99.6247 283.95 100.971 283.369 103.238C282.919 105.008 282.919 110.982 283.369 112.752C283.819 114.504 284.494 115.739 285.394 116.384C286.781 117.362 289.237 117.527 290.812 116.753C293.156 115.592 293.925 113.084 293.756 107.166C293.7 104.363 293.606 103.533 293.269 102.538C292.762 100.989 291.975 99.9012 290.962 99.4034C289.95 98.8872 287.719 98.7581 286.519 99.1269ZM290.025 101.395C291.319 102.317 291.881 105.027 291.694 109.489C291.562 112.42 291.337 113.397 290.55 114.264C289.537 115.426 287.606 115.499 286.481 114.43C285.469 113.471 285.281 112.512 285.281 107.995C285.281 103.792 285.394 103.054 286.144 101.985C286.912 100.897 288.919 100.583 290.025 101.395Z" fill="#004C6B"/>
<path d="M351.675 99.1453C350.588 99.5141 350.044 99.975 349.388 101.044C348.488 102.519 348.281 103.792 348.281 108.087C348.281 111.167 348.338 112.107 348.638 113.213C349.425 116.255 351.413 117.601 354.375 117.14C355.763 116.919 356.794 116.311 357.45 115.315C358.013 114.485 358.5 112.752 358.5 111.554V110.669H357.375H356.25V111.627C356.231 112.9 355.725 114.338 355.106 114.762C354.356 115.315 353.269 115.389 352.275 114.946C351 114.393 350.644 113.527 350.381 110.282C349.988 105.377 350.55 102.243 351.975 101.21C352.613 100.731 354.281 100.712 354.975 101.155C355.556 101.524 356.063 102.667 356.063 103.552C356.063 104.658 356.194 104.769 357.338 104.769H358.369L358.256 103.478C358.069 101.173 357.038 99.6431 355.331 99.0716C354.469 98.795 352.575 98.8319 351.675 99.1453Z" fill="#004C6B"/>
<path d="M390.188 99.1638C388.594 99.7169 387.638 100.971 387.056 103.238C386.606 105.008 386.606 110.982 387.056 112.752C387.731 115.426 388.856 116.716 390.863 117.122C393.019 117.564 395.175 116.827 396.169 115.297C397.088 113.895 397.35 112.605 397.444 108.917C397.613 103.128 396.844 100.51 394.613 99.385C393.581 98.8688 391.369 98.7397 390.188 99.1638ZM394.013 101.616C395.081 102.63 395.325 103.847 395.325 108.272C395.344 112.494 395.156 113.471 394.144 114.43C393.094 115.426 391.219 115.407 390.169 114.43C389.269 113.582 389.025 112.457 388.931 108.641C388.781 102.575 389.588 100.768 392.4 100.952C393.206 101.008 393.506 101.118 394.013 101.616Z" fill="#004C6B"/>
<path d="M434.269 99.1269C433.313 99.4403 432.319 100.325 431.794 101.303C430.519 103.718 430.331 110.687 431.438 113.914C432.225 116.218 433.688 117.214 436.219 117.196C438 117.177 438.919 116.79 439.913 115.647C441.206 114.19 441.656 111.793 441.506 107.166C441.375 102.483 440.756 100.676 438.881 99.5325C438.131 99.0716 437.756 98.9794 436.538 98.9241C435.638 98.8872 434.794 98.9794 434.269 99.1269ZM438.075 101.616C438.506 102.022 438.806 102.575 439.013 103.294C439.406 104.695 439.594 109.009 439.35 111.167C439.013 114.061 438.15 115.094 436.088 115.094C435.15 115.094 434.925 115.02 434.363 114.541C433.294 113.6 433.088 112.734 432.994 108.548C432.881 104.603 433.106 103.017 433.838 102.003C434.775 100.731 436.931 100.528 438.075 101.616Z" fill="#004C6B"/>
<path d="M448.031 99.1453C447.131 99.4956 446.156 100.381 445.669 101.303C444.431 103.681 444.225 110.392 445.294 113.822C446.006 116.089 447.563 117.233 449.906 117.196C453.056 117.159 454.575 115.481 454.95 111.628L455.044 110.669H453.956H452.85L452.719 111.904C452.475 114.356 451.481 115.426 449.663 115.223C447.338 114.965 446.719 113.195 446.85 107.092C446.906 103.755 446.944 103.515 447.413 102.519C447.994 101.303 448.669 100.86 450.038 100.842C451.613 100.823 452.4 101.69 452.569 103.681L452.681 104.769H453.769C455.044 104.769 455.044 104.769 454.669 102.814C454.369 101.229 453.656 100.049 452.644 99.4588C451.613 98.8688 449.231 98.7028 448.031 99.1453Z" fill="#004C6B"/>
<path d="M237.563 107.995V116.753H241.5H245.438V115.831V114.909H242.531H239.625V107.073V99.2375H238.594H237.563V107.995Z" fill="#004C6B"/>
<path d="M248.438 107.995V116.753H252.375H256.313V115.831V114.909H253.406H250.5V107.073V99.2375H249.469H248.438V107.995Z" fill="#004C6B"/>
<path d="M297.188 107.995V116.753H298.219H299.25V107.995V99.2375H298.219H297.188V107.995Z" fill="#004C6B"/>
<path d="M303.375 107.995V116.753H307.312H311.25V115.831V114.909H308.344H305.437V107.073V99.2375H304.406H303.375V107.995Z" fill="#004C6B"/>
<path d="M317.25 100.159V101.081H319.594H321.938V108.917V116.753H322.969H324L324.038 108.954L324.094 101.173L326.4 101.118L328.688 101.063V100.159V99.2375H322.969H317.25V100.159Z" fill="#004C6B"/>
<path d="M331.125 107.995V116.753H335.156H339.187V115.831V114.909H336.281H333.375V111.867V108.825H335.906H338.437V107.903V106.981H335.906H333.375V104.031V101.081H336.187H339V100.159V99.2375H335.062H331.125V107.995Z" fill="#004C6B"/>
<path d="M342.75 107.995V116.753H343.781H344.813V107.995V99.2375H343.781H342.75V107.995Z" fill="#004C6B"/>
<path d="M361.5 107.995V116.753H362.531H363.563L363.6 109.968L363.656 103.202L366.863 109.931L370.05 116.661L371.213 116.716L372.375 116.772L372.338 108.051L372.281 99.3297L371.306 99.2744L370.313 99.219V105.801C370.313 109.747 370.238 112.328 370.144 112.217C370.05 112.125 368.663 109.194 367.069 105.691L364.144 99.3297L362.831 99.2744L361.5 99.219V107.995Z" fill="#004C6B"/>
<path d="M376.312 107.995V116.753H380.344H384.375V115.831V114.909H381.375H378.375L378.413 111.904L378.469 108.917L381.056 108.862L383.625 108.807V107.903V106.981H381H378.356L378.413 104.068L378.469 101.173L381.338 101.118L384.188 101.063V100.159V99.2375H380.25H376.312V107.995Z" fill="#004C6B"/>
<path d="M400.688 107.995V116.753H404.625H408.563V115.831V114.909H405.656H402.75V107.073V99.2375H401.719H400.688V107.995Z" fill="#004C6B"/>
<path d="M412.706 107.663C411.319 112.31 410.156 116.255 410.1 116.44C410.025 116.735 410.138 116.772 411.113 116.716L412.2 116.661L412.838 114.393L413.494 112.125L416.306 112.181L419.119 112.236L419.55 113.803C419.794 114.67 420.094 115.684 420.188 116.053L420.394 116.753H421.519C422.363 116.753 422.644 116.698 422.569 116.513C422.531 116.403 421.35 112.457 419.981 107.774L417.469 99.2375H416.344H415.2L412.706 107.663ZM418.444 110.06C418.388 110.097 417.394 110.097 416.213 110.079L414.056 110.023L415.144 106.152C415.744 104.013 416.231 102.243 416.25 102.188C416.269 102.132 416.775 103.865 417.394 106.041C418.013 108.198 418.481 110.005 418.444 110.06Z" fill="#004C6B"/>
<path d="M425.25 107.995V116.753H426.281H427.313V107.995V99.2375H426.281H425.25V107.995Z" fill="#004C6B"/>
<path d="M458.062 107.995V116.753H459.094H460.125L460.163 112.826L460.219 108.917H463.406H466.594L466.65 112.826L466.688 116.753H467.719H468.75V107.995V99.2375H467.719H466.688V103.109V106.981H463.406H460.125V103.109V99.2375H459.094H458.062V107.995Z" fill="#004C6B"/>
<path d="M471.188 100.159V101.081H473.531H475.875V108.917V116.753H476.906H477.938L477.975 108.954L478.031 101.173L480.338 101.118L482.625 101.063V100.159V99.2375H476.906H471.188V100.159Z" fill="#004C6B"/>
<path d="M486.581 99.8275C486.075 101.395 481.688 116.403 481.688 116.569C481.688 116.661 482.138 116.753 482.719 116.753H483.731L484.013 115.776C484.181 115.26 484.463 114.227 484.65 113.527L485.006 112.236L487.838 112.181L490.669 112.125L490.875 112.918C491.006 113.361 491.288 114.375 491.513 115.186L491.944 116.661L493.013 116.716C493.669 116.753 494.063 116.698 494.063 116.569C494.063 116.403 489.694 101.45 489.169 99.8275C488.981 99.2559 488.944 99.2375 487.875 99.2375C486.806 99.2375 486.769 99.2559 486.581 99.8275ZM489.019 106.207L490.069 110.023L487.913 110.079C486.731 110.097 485.738 110.097 485.681 110.06C485.644 110.023 486.094 108.235 486.694 106.096C487.294 103.958 487.819 102.261 487.875 102.317C487.931 102.353 488.438 104.105 489.019 106.207Z" fill="#004C6B"/>
<path d="M304.462 121.897C303.75 123.003 303.188 123.962 303.188 124.018C303.188 124.073 303.544 124.128 303.994 124.128C304.744 124.128 304.837 124.054 306.131 122.598L307.481 121.086L306.787 120.496C306.412 120.164 306.019 119.906 305.906 119.906C305.812 119.906 305.156 120.809 304.462 121.897Z" fill="#004C6B"/>
<path d="M359.269 125.788C357.394 126.175 356.119 127.613 355.556 130.01C355.088 131.983 355.088 137.624 355.556 139.616C356.006 141.533 356.775 142.787 357.881 143.432C358.688 143.893 358.95 143.948 360.469 143.948C361.969 143.948 362.25 143.893 363.019 143.451C364.5 142.603 365.438 140.63 365.438 138.38V137.403H364.425C363.281 137.403 363.206 137.514 363.188 139.063C363.169 140.058 362.644 141.293 362.044 141.718C361.425 142.142 359.7 142.105 358.95 141.662C357.656 140.888 357.319 139.284 357.413 134.213C357.469 130.471 357.488 130.268 357.938 129.383C358.519 128.221 359.4 127.631 360.506 127.631C362.138 127.631 362.925 128.498 363.131 130.508L363.244 131.503H364.331C365.569 131.503 365.531 131.595 365.25 129.862C365.044 128.627 364.388 127.189 363.806 126.673C362.906 125.88 360.825 125.474 359.269 125.788Z" fill="#004C6B"/>
<path d="M224.438 134.932V143.709L227.4 143.635C230.006 143.58 230.456 143.524 231.244 143.137C232.294 142.639 233.138 141.699 233.531 140.556C233.925 139.413 233.888 137.311 233.456 136.371C233.138 135.67 231.713 134.269 231.3 134.269C231.206 134.269 231.469 133.918 231.919 133.513C232.988 132.499 233.306 131.706 233.288 130.176C233.269 128.867 232.913 127.797 232.256 127.097C231.488 126.285 230.85 126.156 227.531 126.156H224.438V134.932ZM229.744 128.018C230.719 128.277 231.188 129.051 231.188 130.452C231.188 131.651 230.869 132.388 230.138 132.96C229.725 133.292 229.369 133.347 228.075 133.347H226.5V130.71C226.5 129.254 226.556 128 226.631 127.945C226.819 127.742 228.956 127.797 229.744 128.018ZM230.25 135.522C231.188 135.965 231.656 136.997 231.638 138.509C231.619 139.929 231.244 140.759 230.381 141.275C229.913 141.57 229.444 141.644 228.15 141.644H226.5V138.417V135.191H228.056C229.144 135.191 229.781 135.283 230.25 135.522Z" fill="#004C6B"/>
<path d="M237 134.914V143.672H238.031H239.062V139.708V135.744H242.344H245.625V139.708V143.672H246.656H247.687V134.914V126.156H246.656H245.625L245.587 129.973L245.531 133.808L242.306 133.863L239.062 133.9V130.028V126.156H238.031H237V134.914Z" fill="#004C6B"/>
<path d="M254.925 127.668C253.725 131.632 250.313 143.303 250.313 143.469C250.313 143.598 250.744 143.672 251.344 143.672H252.356L252.656 142.603C252.825 142.031 253.031 141.293 253.125 140.998C253.219 140.685 253.388 140.095 253.5 139.653L253.706 138.878H256.481H259.275L259.856 141.035C260.194 142.234 260.494 143.322 260.531 143.432C260.588 143.598 261 143.672 261.731 143.672H262.838L262.481 142.418C262.275 141.736 261.131 137.827 259.913 133.716L257.7 126.248L256.556 126.193L255.394 126.138L254.925 127.668ZM257.719 133.144C258.281 135.228 258.75 136.942 258.75 136.979C258.75 137.016 257.738 137.034 256.481 137.034C254.419 137.034 254.231 136.998 254.325 136.703C254.363 136.537 254.85 134.803 255.394 132.886C256.369 129.346 256.519 128.885 256.631 129.198C256.65 129.309 257.138 131.079 257.719 133.144Z" fill="#004C6B"/>
<path d="M265.5 134.914V143.672H266.531H267.563V134.914V126.156H266.531H265.5V134.914Z" fill="#004C6B"/>
<path d="M271.875 134.914V143.672H275.813H279.75V142.75V141.828H276.844H273.938V133.992V126.156H272.906H271.875V134.914Z" fill="#004C6B"/>
<path d="M282.75 134.914V143.672H286.688H290.625V142.75V141.828H287.719H284.813V138.786V135.744H287.456H290.081L290.025 134.767L289.969 133.808L287.4 133.752L284.813 133.697V130.858V128H287.625H290.438V127.078V126.156H286.594H282.75V134.914Z" fill="#004C6B"/>
<path d="M302.531 126.377C302.231 127.244 297.562 143.303 297.562 143.469C297.562 143.598 297.956 143.672 298.575 143.672C299.381 143.672 299.625 143.598 299.7 143.34C299.756 143.174 300.019 142.234 300.281 141.275C300.544 140.316 300.806 139.376 300.863 139.192C300.956 138.915 301.256 138.878 303.75 138.878H306.544L306.825 139.837C306.975 140.372 307.238 141.367 307.406 142.031C307.838 143.69 307.838 143.709 309.019 143.635L310.05 143.58L307.5 134.914L304.95 126.248L303.788 126.193C302.963 126.156 302.588 126.212 302.531 126.377ZM304.95 132.978C305.531 135.062 306 136.832 306 136.905C306 137.053 301.8 137.09 301.65 136.942C301.594 136.887 302.006 135.209 302.569 133.199C303.675 129.162 303.731 129.014 303.825 129.125C303.863 129.162 304.369 130.895 304.95 132.978Z" fill="#004C6B"/>
<path d="M309 127.078V128H311.344H313.688V135.836V143.672H314.719H315.75V135.836V128H318.094H320.438V127.078V126.156H314.719H309V127.078Z" fill="#004C6B"/>
<path d="M322.875 134.914V143.672H323.906H324.938V139.708V135.744H328.219H331.5V139.708V143.672H332.531H333.563V134.914V126.156H332.531H331.5V130.028V133.9L328.275 133.863L325.031 133.808L324.975 129.973L324.938 126.156H323.906H322.875V134.914Z" fill="#004C6B"/>
<path d="M341.344 126.377C341.287 126.507 340.144 130.305 338.812 134.822C337.462 139.339 336.319 143.174 336.262 143.34C336.169 143.635 336.3 143.672 337.256 143.672H338.344L339 141.312L339.656 138.97L342.469 138.915L345.281 138.878L345.956 141.22L346.631 143.58L347.681 143.635C348.469 143.672 348.75 143.635 348.75 143.451C348.75 143.322 347.625 139.394 346.237 134.73L343.744 126.248L342.581 126.193C341.775 126.156 341.4 126.212 341.344 126.377ZM343.687 133.107C344.194 134.951 344.625 136.592 344.625 136.758C344.625 136.997 344.287 137.034 342.469 137.034C340.987 137.034 340.312 136.961 340.312 136.832C340.312 136.666 341.869 130.913 342.319 129.383L342.431 129.014L342.581 129.383C342.675 129.586 343.162 131.263 343.687 133.107Z" fill="#004C6B"/>
<path d="M368.625 134.914V143.672H372.563H376.5V142.75V141.828H373.594H370.688V133.992V126.156H369.656H368.625V134.914Z" fill="#004C6B"/>
<path d="M379.5 134.914V143.672H380.531H381.563V134.914V126.156H380.531H379.5V134.914Z" fill="#004C6B"/>
<path d="M387 134.674C385.631 139.376 384.469 143.322 384.413 143.432C384.356 143.617 384.638 143.672 385.444 143.672H386.531L387.188 141.312L387.844 138.97L390.619 138.915C392.738 138.878 393.394 138.915 393.469 139.099C393.506 139.228 393.806 140.316 394.144 141.496L394.725 143.672H395.85C396.825 143.672 396.956 143.635 396.863 143.34C396.563 142.437 391.875 126.341 391.875 126.248C391.875 126.193 391.35 126.156 390.694 126.156H389.513L387 134.674ZM391.763 132.904C392.344 134.932 392.813 136.702 392.813 136.813C392.813 136.979 392.194 137.034 390.656 137.034C388.781 137.034 388.5 136.997 388.5 136.739C388.5 136.205 390.544 129.032 390.656 129.143C390.694 129.18 391.2 130.876 391.763 132.904Z" fill="#004C6B"/>
<path d="M396 127.078V128H398.25H400.5V135.836V143.69L401.587 143.635L402.656 143.58L402.712 135.781L402.75 128H405H407.25V127.078V126.156H401.625H396V127.078Z" fill="#004C6B"/>
<path d="M409.875 134.914V143.672H410.906H411.938V139.708V135.744H415.125H418.313V139.708V143.69L419.4 143.635L420.469 143.58L420.525 134.859L420.563 126.156H419.438H418.313V130.028V133.9H415.125H411.938V130.028V126.156H410.906H409.875V134.914Z" fill="#004C6B"/>
<path d="M17.2501 216.703V264.659L32.5876 264.567C49.0689 264.474 50.4189 264.401 55.4064 263.423C71.9814 260.16 84.1126 249.817 89.2314 234.643C93.2814 222.621 92.9626 207.816 88.4251 196.495L87.7501 194.854L88.2564 194.283C88.5376 193.988 89.7376 192.771 90.9189 191.573L93.0564 189.434L92.1376 188.069C89.7564 184.548 85.9314 180.565 82.5001 178.039C76.0876 173.301 68.9064 170.535 59.4376 169.171C57.5439 168.894 54.8064 168.858 37.2751 168.802L17.2501 168.728V216.703ZM58.5939 181.432C64.2751 182.335 68.8689 183.995 72.8439 186.594C75.6001 188.401 78.5251 191.167 80.1939 193.508L80.7001 194.209L78.0939 196.772L75.4876 199.353L75.7314 199.943C77.0814 203.28 78.0001 206.931 78.4876 210.784C78.8814 213.974 78.7689 220.925 78.2814 223.967C75.9001 238.902 66.7689 248.637 52.5001 251.421C48.8251 252.14 46.6126 252.269 38.1189 252.269H30.1876V216.574V180.879L43.1814 180.971C55.1814 181.045 56.3439 181.082 58.5939 181.432Z" fill="#004C6B"/>
<path d="M218.438 178.906V189.065L221.25 191.978L224.063 194.873V229.757V264.64L241.556 264.567C258.206 264.511 259.144 264.493 261.469 264.124C265.781 263.423 268.894 262.502 272.138 260.897C278.475 257.8 282.956 252.803 285.094 246.498C287.7 238.772 286.969 230.402 283.144 224.059C280.8 220.206 277.425 217.237 272.925 215.099L271.088 214.214L271.8 213.661C273.338 212.499 276 209.697 277.013 208.166C279.619 204.239 280.706 200.257 280.706 194.781C280.688 180.049 270.994 170.406 254.719 168.931C253.519 168.821 245.55 168.747 235.556 168.747H218.438V178.906ZM255.844 181.413C260.831 182.52 264.244 184.898 266.044 188.512C267.263 190.964 267.469 191.96 267.469 195.573C267.469 198.523 267.431 198.8 266.944 200.183C266.156 202.395 265.425 203.52 263.644 205.253C262.313 206.562 261.713 206.986 260.25 207.705C256.613 209.457 254.888 209.678 244.744 209.678H237V204.552L236.981 199.445L234.188 196.587L231.375 193.73V187.442C231.375 183.995 231.431 181.1 231.506 181.026C231.6 180.952 236.719 180.916 242.906 180.971C253.369 181.045 254.269 181.063 255.844 181.413ZM259.5 222.123C266.85 223.267 271.65 227.267 273.019 233.37C273.413 235.122 273.319 239.307 272.831 241.114C271.256 247.032 266.888 250.646 259.688 252.011C258.375 252.25 256.238 252.324 247.556 252.398L237 252.49V237.168V221.847H247.369C255.675 221.847 258.075 221.902 259.5 222.123Z" fill="#004C6B"/>
<path d="M308.756 172.029L305.438 175.292V219.966V264.622H333.094H360.75V258.445V252.269H339.563H318.375V210.508V168.747H315.225H312.094L308.756 172.029Z" fill="#004C6B"/>
<path d="M386.756 172.029L383.438 175.292V219.966V264.622H389.906H396.375V216.684V168.747H393.225H390.094L386.756 172.029Z" fill="#004C6B"/>
<path d="M418.312 216.684V264.622H424.781H431.25L431.288 227.987L431.344 191.37L432.825 193.748C433.65 195.057 444.994 211.54 458.025 230.365L481.744 264.622H488.081H494.438V216.684V168.747H491.288H488.156L484.725 172.121L481.313 175.477L481.275 208.683L481.219 241.888L479.213 238.828C478.106 237.15 466.8 220.704 454.069 202.303L430.931 168.839L424.631 168.784L418.312 168.747V216.684Z" fill="#004C6B"/>
<path d="M111.75 221.828C111.75 242.7 111.825 255.127 111.938 256.343C113.044 267.369 118.331 276.735 127.125 283.225C137.213 290.674 150.975 293.735 164.606 291.541C175.538 289.771 184.763 284.829 191.213 277.252C195.656 272.034 198.469 265.913 199.669 258.814C200.25 255.44 200.288 252.711 200.156 221.054L200.006 189.212H185.7H171.375V218.694C171.375 238.256 171.3 248.655 171.188 249.577C170.494 254.463 167.381 258.464 162.675 260.566C156.581 263.294 149.381 262.078 144.656 257.523C142.463 255.403 141.075 252.656 140.625 249.577C140.513 248.655 140.438 238.256 140.438 218.694V189.212H126.094H111.75V221.828Z" fill="#004C6B"/>
<path d="M333.15 289.365C332.775 289.457 332.137 289.826 331.725 290.176C330.15 291.504 329.625 293.495 329.625 298.197C329.606 304.355 330.675 306.788 333.675 307.397C334.931 307.655 335.962 307.508 337.237 306.918C338.756 306.217 339.562 304.742 339.844 302.179L339.975 300.944H338.85H337.744L337.612 302.179C337.35 304.705 336.394 305.738 334.556 305.479C332.906 305.258 332.194 304.299 331.856 301.829C331.594 300.022 331.744 294.343 332.062 293.329C332.55 291.743 334.144 290.785 335.644 291.172C336.844 291.504 337.5 292.573 337.5 294.251V295.044H338.644H339.806L339.675 293.864C339.431 291.43 338.419 289.844 336.825 289.365C335.925 289.107 334.144 289.107 333.15 289.365Z" fill="#004C6B"/>
<path d="M375.15 289.402C373.988 289.844 373.313 290.471 372.731 291.651C372.019 293.071 371.625 295.449 371.625 298.27C371.644 304.779 373.2 307.471 376.969 307.471C380.981 307.489 382.481 305 382.5 298.363C382.5 293.218 381.675 290.711 379.65 289.678C378.638 289.162 376.2 289.015 375.15 289.402ZM378.713 291.67C379.688 292.352 380.063 293.477 380.288 296.224C380.663 301.091 380.063 304.244 378.6 305.055C377.794 305.516 376.219 305.516 375.581 305.037C374.194 304.023 373.875 302.751 373.875 298.27C373.875 293.606 374.25 292.26 375.769 291.485C376.575 291.061 378 291.153 378.713 291.67Z" fill="#004C6B"/>
<path d="M398.512 289.439C396.319 290.232 395.344 292.426 395.137 297.072C394.95 301.202 395.55 304.521 396.75 305.959C397.969 307.397 400.556 307.932 402.6 307.157C404.981 306.254 405.937 303.746 405.937 298.363C405.937 293.2 405.112 290.693 403.087 289.678C402.056 289.144 399.637 289.015 398.512 289.439ZM402.15 291.67C403.125 292.352 403.5 293.477 403.725 296.242C404.119 301.054 403.5 304.244 402.037 305.055C401.231 305.516 399.656 305.516 399.019 305.037C397.65 304.06 397.312 302.64 397.312 298.068C397.312 293.624 397.706 292.26 399.206 291.485C400.012 291.061 401.437 291.153 402.15 291.67Z" fill="#004C6B"/>
<path d="M412.088 289.365C411.206 289.586 409.969 290.637 409.5 291.559C408.225 293.993 408.038 300.649 409.125 304.133C409.538 305.443 410.438 306.659 411.356 307.102C412.125 307.489 413.531 307.618 414.375 307.397C414.825 307.286 415.519 306.862 415.988 306.438L416.813 305.682V306.364V307.028H417.75H418.688V302.603V298.178H416.156H413.625V299.192V300.206H415.238H416.869L416.738 301.534C416.588 303.248 416.344 304.097 415.875 304.687C415.388 305.277 414.356 305.627 413.4 305.498C411.169 305.203 410.531 303.378 410.644 297.385C410.719 293.974 410.738 293.808 411.225 292.831C411.863 291.559 412.481 291.172 413.906 291.172C414.825 291.172 415.031 291.246 415.5 291.688C416.081 292.26 416.438 293.274 416.438 294.343V295.044H417.581H418.725L418.594 293.882C418.313 291.448 417.206 289.789 415.556 289.347C414.694 289.107 413.044 289.107 412.088 289.365Z" fill="#004C6B"/>
<path d="M431.344 289.439C430.444 289.771 429.469 290.656 428.981 291.578C427.744 293.938 427.556 300.723 428.625 304.133C429.319 306.364 430.875 307.489 433.219 307.471C436.312 307.471 437.85 305.774 438.262 301.995L438.375 300.944H437.269H436.162L436.031 302.179C435.787 304.631 434.794 305.701 432.975 305.498C430.65 305.24 430.031 303.47 430.162 297.367C430.219 294.03 430.256 293.79 430.725 292.794C431.306 291.578 431.981 291.135 433.35 291.117C434.925 291.098 435.712 291.965 435.881 293.956L435.994 295.044H437.1H438.225L438.094 293.901C437.7 290.563 436.294 289.125 433.425 289.162C432.694 289.162 431.756 289.291 431.344 289.439Z" fill="#004C6B"/>
<path d="M305.381 289.642C305.306 289.697 305.25 290.121 305.25 290.563V291.356H307.594H309.938V299.192V307.028H311.063H312.188V299.192V291.356H314.438H316.688V290.434V289.513H311.1C308.025 289.513 305.438 289.568 305.381 289.642Z" fill="#004C6B"/>
<path d="M319.125 298.27V307.028H323.156H327.188V306.106V305.184H324.281H321.375V302.142V299.1H324H326.625V298.178V297.256H324H321.375V294.306V291.356H324.188H327V290.434V289.513H323.063H319.125V298.27Z" fill="#004C6B"/>
<path d="M342.938 298.27V307.028H343.969H345L345.038 303.101L345.094 299.192H348.281H351.469L351.525 303.101L351.563 307.028H352.594H353.625V298.27V289.513H352.594H351.563V293.384V297.256H348.281H345V293.384V289.513H343.969H342.938V298.27Z" fill="#004C6B"/>
<path d="M357.75 298.27V307.028H358.781H359.812V300.243V293.477L363.037 300.243L366.262 307.028H367.35H368.437V298.27V289.513H367.406H366.375L366.337 296.076L366.281 302.622L363.281 296.076L360.281 289.513H359.025H357.75V298.27Z" fill="#004C6B"/>
<path d="M385.687 298.27V307.028H389.625H393.562V306.106V305.184H390.656H387.75V297.348V289.513H386.719H385.687V298.27Z" fill="#004C6B"/>
<path d="M422.625 298.27V307.028H423.656H424.688V298.27V289.513H423.656H422.625V298.27Z" fill="#004C6B"/>
<path d="M444.3 290.379C443.756 292.075 439.5 306.623 439.5 306.825C439.5 306.954 439.913 307.028 440.531 307.028C441.694 307.028 441.431 307.434 442.388 304.078L442.819 302.511L445.631 302.456L448.444 302.4L449.081 304.668L449.719 306.936L450.806 306.991C451.388 307.028 451.875 306.973 451.875 306.881C451.875 306.752 448.875 296.482 447.169 290.748L446.794 289.513H445.688H444.6L444.3 290.379ZM446.831 296.482L447.881 300.298L445.725 300.354C444.544 300.372 443.55 300.372 443.513 300.354C443.494 300.317 443.944 298.528 444.525 296.39C445.106 294.251 445.631 292.536 445.688 292.573C445.744 292.628 446.25 294.38 446.831 296.482Z" fill="#004C6B"/>
<path d="M454.5 298.27V307.028H458.531H462.563V306.106V305.184H459.656H456.75V297.348V289.513H455.625H454.5V298.27Z" fill="#004C6B"/>
<path d="M378.469 315.436C376.762 316.044 375.825 317.63 375.862 319.842C375.9 322.147 376.706 323.272 379.481 324.857C381.769 326.185 382.612 327.014 382.781 328.139C382.969 329.282 382.762 330.167 382.144 330.849C381.731 331.31 381.45 331.439 380.662 331.513C378.769 331.679 377.869 330.831 377.662 328.637L377.531 327.402L376.425 327.346L375.319 327.291L375.431 328.674C375.694 332.122 378.056 334.058 381.225 333.412C383.719 332.896 384.975 331.31 384.975 328.655C384.975 327.715 384.862 326.941 384.656 326.424C384.281 325.503 382.969 324.304 381.544 323.548C378.9 322.147 378.169 321.465 377.925 320.1C377.55 318.054 379.2 316.56 381.187 317.15C382.05 317.39 382.5 318.017 382.669 319.178L382.781 320.027L383.887 320.082L384.994 320.137L384.862 319.16C384.6 317.206 383.494 315.749 381.994 315.343C381 315.067 379.369 315.122 378.469 315.436Z" fill="#004C6B"/>
<path d="M305.438 322.497C305.438 328.305 305.494 329.614 305.719 330.278C306.506 332.472 307.988 333.468 310.481 333.468C313.013 333.449 314.513 332.453 315.188 330.278C315.525 329.208 315.563 328.563 315.563 322.313V315.509H314.531H313.5V322.46C313.5 329.079 313.481 329.448 313.125 330.186C312.656 331.126 311.85 331.55 310.556 331.55C309.281 331.55 308.438 331.071 307.931 330.075C307.5 329.264 307.5 329.153 307.5 322.387V315.509H306.469H305.438V322.497Z" fill="#004C6B"/>
<path d="M319.5 324.267V333.025H320.438H321.375V326.258C321.375 322.552 321.431 319.566 321.506 319.639C321.581 319.713 323.044 322.737 324.769 326.351L327.881 332.933L329.044 332.988L330.188 333.043V324.267V315.509H329.156H328.125L328.106 322.092C328.106 326.553 328.05 328.6 327.919 328.416C327.806 328.268 326.438 325.318 324.844 321.87L321.975 315.602L320.738 315.546L319.5 315.491V324.267Z" fill="#004C6B"/>
<path d="M334.313 324.267V333.025H335.344H336.375V324.267V315.509H335.344H334.313V324.267Z" fill="#004C6B"/>
<path d="M339 315.638C339 315.731 339.956 319.639 341.119 324.359L343.219 332.933H344.344H345.45L347.569 324.359C348.731 319.639 349.669 315.731 349.688 315.638C349.688 315.565 349.181 315.509 348.563 315.509C347.944 315.509 347.438 315.565 347.438 315.638C347.438 315.749 344.775 328.25 344.531 329.319C344.456 329.559 344.381 329.706 344.344 329.669C344.288 329.633 343.613 326.609 342.844 322.958C342.056 319.326 341.381 316.155 341.306 315.915C341.213 315.546 341.1 315.509 340.106 315.509C339.506 315.509 339 315.565 339 315.638Z" fill="#004C6B"/>
<path d="M352.125 324.267V333.025H356.156H360.188V332.103V331.181H357.188H354.188L354.225 328.176L354.281 325.189L356.869 325.134L359.438 325.078V324.175V323.253H356.813H354.169L354.225 320.34L354.281 317.445L357.15 317.39L360 317.335V316.431V315.509H356.063H352.125V324.267Z" fill="#004C6B"/>
<path d="M363.75 324.249V333.025H364.688H365.625V329.338V325.632L366.863 325.687L368.1 325.742L369.563 329.338L371.025 332.933L372.169 332.988C373.294 333.043 373.313 333.043 373.144 332.619C373.05 332.38 372.338 330.573 371.531 328.6L370.106 325.005L370.519 324.728C372.356 323.548 372.844 322.626 372.844 320.395C372.844 318.57 372.525 317.722 371.494 316.763C370.5 315.823 369.713 315.638 366.619 315.546L363.75 315.473V324.249ZM369.469 317.796C370.406 318.404 370.706 319.142 370.65 320.617C370.594 321.594 370.481 322.073 370.2 322.442C369.431 323.456 368.925 323.677 367.219 323.769L365.625 323.862V320.58V317.298L367.313 317.39C368.438 317.464 369.15 317.593 369.469 317.796Z" fill="#004C6B"/>
<path d="M388.312 324.267V333.025H389.344H390.375V324.267V315.509H389.344H388.312V324.267Z" fill="#004C6B"/>
<path d="M393 316.431V317.335L395.306 317.39L397.594 317.445L397.65 325.226L397.688 333.025H398.719H399.75V325.189V317.353H402.094H404.438V316.431V315.509H398.719H393V316.431Z" fill="#004C6B"/>
<path d="M406.125 315.602C406.125 315.657 407.138 318.091 408.375 321.004L410.625 326.314V329.669V333.025H411.656H412.688V329.706V326.388L414.938 321.041C416.175 318.109 417.188 315.657 417.188 315.602C417.188 315.546 416.7 315.509 416.119 315.546L415.069 315.602L413.475 319.879C412.594 322.239 411.825 324.175 411.769 324.175C411.713 324.175 410.944 322.239 410.063 319.879L408.45 315.602L407.288 315.546C406.65 315.509 406.125 315.546 406.125 315.602Z" fill="#004C6B"/>
<path d="M426.562 324.267V333.062L429.15 332.97C432.038 332.878 432.713 332.693 433.988 331.753C435.919 330.315 436.8 327.512 436.65 323.345C436.463 319.105 435.375 317.058 432.75 316.044C431.925 315.731 431.194 315.62 429.15 315.546L426.562 315.454V324.267ZM432.169 317.943C433.144 318.404 433.95 319.547 434.231 320.875C434.531 322.258 434.494 326.48 434.156 327.733C433.538 330.093 432.094 331.181 429.619 331.181H428.625V324.249V317.298L429.994 317.427C430.725 317.501 431.719 317.74 432.169 317.943Z" fill="#004C6B"/>
<path d="M439.744 322.645C439.819 330.573 439.819 330.647 441.037 332.011C442.144 333.246 444.037 333.781 446.062 333.394C448.294 332.988 449.512 331.458 449.831 328.655C449.925 327.77 449.981 324.47 449.962 321.317L449.906 315.602L448.931 315.546L447.956 315.491L447.9 322.46C447.844 330.204 447.806 330.444 446.587 331.181C445.687 331.753 443.662 331.642 442.969 330.997C441.844 329.964 441.844 330.057 441.787 322.46L441.731 315.509H440.7H439.669L439.744 322.645Z" fill="#004C6B"/>
<path d="M453.75 324.267V333.025H456.713C459.956 333.025 460.65 332.859 461.7 331.808C462.619 330.886 462.994 329.946 463.088 328.287C463.163 326.904 463.125 326.664 462.656 325.742C462.3 325.023 461.925 324.562 461.381 324.212C460.95 323.954 460.556 323.696 460.519 323.677C460.463 323.64 460.725 323.364 461.1 323.069C462.075 322.276 462.563 321.17 462.563 319.768C462.563 318.22 462.244 317.243 461.513 316.523C460.688 315.712 459.694 315.509 456.488 315.509H453.75V324.267ZM459.525 317.648C461.025 318.681 460.744 321.944 459.094 322.626C458.738 322.774 457.856 322.884 457.125 322.884H455.813V320.119V317.353H457.463C458.644 317.353 459.225 317.427 459.525 317.648ZM459.919 325.189C460.613 325.779 460.931 326.719 460.931 328.084C460.913 329.282 460.538 330.093 459.694 330.702C459.263 331.015 458.831 331.108 457.481 331.144L455.813 331.218V327.973V324.728H457.575C459.188 324.728 459.394 324.765 459.919 325.189Z" fill="#004C6B"/>
<path d="M466.312 324.267V333.025H470.25H474.188V332.103V331.181H471.281H468.375V323.345V315.509H467.344H466.312V324.267Z" fill="#004C6B"/>
<path d="M477.188 324.267V333.025H478.219H479.25V324.267V315.509H478.219H477.188V324.267Z" fill="#004C6B"/>
<path d="M483.563 324.267V333.025H484.5H485.438V326.258C485.438 322.552 485.494 319.566 485.569 319.639C485.644 319.713 487.106 322.737 488.831 326.351L491.944 332.933L493.106 332.988L494.25 333.043V324.267V315.509H493.219H492.188V322.092C492.188 325.705 492.131 328.6 492.056 328.545C492 328.471 490.613 325.539 488.981 322.018L486.038 315.602L484.8 315.546L483.563 315.491V324.267Z" fill="#004C6B"/>
<line x1="537.5" y1="48" x2="537.5" y2="360" stroke="#ACACAC" stroke-width="3"/>
</svg>
