<?xml version="1.0" standalone="no"?>
<!DOCTYPE svg PUBLIC "-//W3C//DTD SVG 20010904//EN"
 "http://www.w3.org/TR/2001/REC-SVG-20010904/DTD/svg10.dtd">
<svg version="1.0" xmlns="http://www.w3.org/2000/svg"
 width="500.000000pt" height="250.000000pt" viewBox="0 0 500.000000 250.000000"
 preserveAspectRatio="xMidYMid meet">

<g transform="translate(0.000000,250.000000) scale(0.100000,-0.100000)"
fill="#000000" stroke="none">
<path d="M1066 1848 c-8 -18 -58 -148 -111 -288 -53 -140 -100 -261 -105 -269
-7 -14 -21 19 -109 262 l-43 117 -114 0 -114 0 9 -22 c219 -573 354 -924 358
-928 11 -12 39 53 188 445 87 229 162 412 166 408 4 -4 80 -197 168 -428 90
-238 165 -420 172 -420 10 0 345 845 365 923 l6 23 -112 -3 -113 -3 -70 -192
c-39 -106 -74 -189 -78 -185 -4 4 -57 138 -117 297 l-110 290 -111 3 -112 3
-13 -33z"/>
<path d="M2410 1785 l0 -95 348 2 347 3 0 90 0 90 -347 3 -348 2 0 -95z"/>
<path d="M3792 1307 c-122 -315 -222 -576 -222 -580 0 -4 51 -7 114 -7 l113 0
113 325 c63 179 117 322 120 318 4 -5 49 -127 100 -273 51 -146 102 -289 112
-317 l19 -53 110 0 c87 0 109 3 109 14 0 31 -439 1141 -452 1144 -10 2 -79
-165 -236 -571z"/>
<path d="M2650 1090 l0 -371 108 3 107 3 3 368 2 367 -110 0 -110 0 0 -370z"/>
</g>
</svg>
